<svg width="34" height="52" viewBox="0 0 34 52" fill="none" xmlns="http://www.w3.org/2000/svg">
<path d="M3.66406 51.8125C2.72656 51.8125 1.98438 51.5078 1.4375 50.8984C0.90625 50.3047 0.640625 49.4844 0.640625 48.4375V7.5625C0.640625 5.23438 1.23438 3.46875 2.42188 2.26562C3.60938 1.0625 5.35938 0.460938 7.67188 0.460938H26.3047C28.6172 0.460938 30.3672 1.0625 31.5547 2.26562C32.7422 3.46875 33.3359 5.23438 33.3359 7.5625V48.4375C33.3359 49.4844 33.0625 50.3047 32.5156 50.8984C31.9844 51.5078 31.2578 51.8125 30.3359 51.8125C29.6953 51.8125 29.1094 51.6172 28.5781 51.2266C28.0469 50.8516 27.2734 50.1719 26.2578 49.1875L17.1875 40.2344C17.0625 40.0938 16.9297 40.0938 16.7891 40.2344L7.74219 49.1875C6.72656 50.1719 5.94531 50.8516 5.39844 51.2266C4.86719 51.6172 4.28906 51.8125 3.66406 51.8125Z" fill="currentColor"/>
</svg>
