<svg width="34" height="52" viewBox="0 0 34 52" fill="none" xmlns="http://www.w3.org/2000/svg">
<path d="M3.66406 51.8125C2.72656 51.8125 1.98438 51.5078 1.4375 50.8984C0.90625 50.3047 0.640625 49.4844 0.640625 48.4375V7.5625C0.640625 5.23438 1.23438 3.46875 2.42188 2.26562C3.60938 1.0625 5.35938 0.460938 7.67188 0.460938H26.3047C28.6172 0.460938 30.3672 1.0625 31.5547 2.26562C32.7422 3.46875 33.3359 5.23438 33.3359 7.5625V48.4375C33.3359 49.4844 33.0625 50.3047 32.5156 50.8984C31.9844 51.5078 31.2578 51.8125 30.3359 51.8125C29.6953 51.8125 29.1094 51.6172 28.5781 51.2266C28.0469 50.8516 27.2734 50.1719 26.2578 49.1875L17.1875 40.2344C17.0625 40.0938 16.9297 40.0938 16.7891 40.2344L7.74219 49.1875C6.72656 50.1719 5.94531 50.8516 5.39844 51.2266C4.86719 51.6172 4.28906 51.8125 3.66406 51.8125ZM5.89062 44.1719L15.4531 34.8906C15.9531 34.4219 16.4688 34.1875 17 34.1875C17.5312 34.1875 18.0391 34.4219 18.5234 34.8906L28.1094 44.1719C28.2656 44.3281 28.4141 44.3828 28.5547 44.3359C28.7109 44.3047 28.7891 44.1719 28.7891 43.9375V7.82031C28.7891 6.86719 28.5469 6.16406 28.0625 5.71094C27.5938 5.24219 26.8906 5.00781 25.9531 5.00781H8.04688C7.09375 5.00781 6.375 5.24219 5.89062 5.71094C5.42188 6.16406 5.1875 6.86719 5.1875 7.82031V43.9375C5.1875 44.1719 5.25781 44.3047 5.39844 44.3359C5.55469 44.3828 5.71875 44.3281 5.89062 44.1719Z" fill="currentColor"/>
</svg>
