<svg width="15" height="9" viewBox="0 0 15 9" fill="none" xmlns="http://www.w3.org/2000/svg">
<path d="M6.94955 9C6.12849 9 5.71795 8.74082 5.71795 8.22246C5.71795 7.90497 5.81849 7.56641 6.01957 7.2068C6.22065 6.84719 6.51053 6.50864 6.88923 6.19114C7.27127 5.87041 7.73208 5.60961 8.27163 5.40875C8.81454 5.20788 9.42615 5.10745 10.1065 5.10745C10.7901 5.10745 11.4017 5.20788 11.9413 5.40875C12.4842 5.60961 12.945 5.87041 13.3237 6.19114C13.7057 6.50864 13.9973 6.84719 14.1984 7.2068C14.3995 7.56641 14.5 7.90497 14.5 8.22246C14.5 8.74082 14.0878 9 13.2634 9H6.94955ZM6.70826 8.2662H13.5047C13.5717 8.2662 13.6186 8.25648 13.6454 8.23704C13.6756 8.2176 13.6907 8.18197 13.6907 8.13013C13.6907 7.92927 13.6119 7.69924 13.4544 7.44006C13.3002 7.18089 13.0707 6.92981 12.7657 6.68683C12.4607 6.44384 12.0854 6.24298 11.6397 6.08423C11.194 5.92225 10.6829 5.84125 10.1065 5.84125C9.53004 5.84125 9.01897 5.92225 8.57325 6.08423C8.13088 6.24298 7.75721 6.44384 7.45224 6.68683C7.14728 6.92981 6.91604 7.18089 6.75853 7.44006C6.60437 7.69924 6.52729 7.92927 6.52729 8.13013C6.52729 8.18197 6.54069 8.2176 6.5675 8.23704C6.59767 8.25648 6.64458 8.2662 6.70826 8.2662ZM10.1115 4.5C9.71269 4.5 9.34907 4.39795 9.02065 4.19384C8.69222 3.98974 8.42914 3.71598 8.23142 3.37257C8.03704 3.02592 7.93986 2.64525 7.93986 2.23056C7.93986 1.81911 8.03704 1.44492 8.23142 1.10799C8.42914 0.771058 8.69222 0.50216 9.02065 0.301296C9.34907 0.100432 9.71269 0 10.1115 0C10.5136 0 10.8789 0.0988121 11.2074 0.296436C11.5358 0.49406 11.7972 0.761339 11.9916 1.09827C12.1859 1.43197 12.2831 1.80616 12.2831 2.22084C12.2831 2.63877 12.1843 3.02106 11.9865 3.36771C11.7922 3.71112 11.5308 3.9865 11.2023 4.19384C10.8739 4.39795 10.5103 4.5 10.1115 4.5ZM10.1115 3.7662C10.3595 3.7662 10.5857 3.69816 10.7901 3.5621C10.9979 3.42279 11.1638 3.2365 11.2878 3.00324C11.4118 2.76674 11.4738 2.50594 11.4738 2.22084C11.4738 1.93898 11.4118 1.68629 11.2878 1.46274C11.1671 1.23596 11.0029 1.05778 10.7952 0.928186C10.5907 0.798596 10.3628 0.733801 10.1115 0.733801C9.86349 0.733801 9.63561 0.800216 9.42783 0.933045C9.2234 1.06264 9.05919 1.24082 8.93519 1.4676C8.81119 1.69438 8.74919 1.9487 8.74919 2.23056C8.74919 2.51566 8.81119 2.77484 8.93519 3.0081C9.06254 3.24136 9.22843 3.42603 9.43285 3.5621C9.64063 3.69816 9.86685 3.7662 10.1115 3.7662ZM1.52047 9C1.18199 9 0.927289 8.93197 0.756373 8.7959C0.585458 8.66307 0.5 8.46058 0.5 8.18845C0.5 7.78672 0.598863 7.40119 0.796589 7.03186C0.994315 6.65929 1.26744 6.32883 1.61598 6.0405C1.96786 5.74892 2.37337 5.5189 2.8325 5.35043C3.29497 5.18197 3.78929 5.09773 4.31544 5.09773C4.5936 5.09773 4.86338 5.12203 5.12478 5.17063C5.38618 5.21598 5.63752 5.28564 5.87882 5.37959C6.12346 5.4703 6.3547 5.58369 6.57253 5.71976C6.45859 5.79752 6.3547 5.88013 6.26086 5.9676C6.16703 6.05184 6.08157 6.14255 6.00449 6.23974C5.84028 6.14579 5.66768 6.06803 5.48671 6.00648C5.3091 5.94492 5.12142 5.89795 4.9237 5.86555C4.72932 5.83315 4.52657 5.81695 4.31544 5.81695C3.90323 5.81695 3.51281 5.88175 3.14417 6.01134C2.77552 6.13769 2.44877 6.31102 2.16391 6.53132C1.87905 6.74838 1.65452 6.99622 1.49031 7.27484C1.32944 7.55346 1.24901 7.84341 1.24901 8.14471C1.24901 8.19331 1.26074 8.22732 1.2842 8.24676C1.30766 8.26944 1.3462 8.28078 1.39982 8.28078H5.07953C5.06278 8.42981 5.09294 8.57073 5.17002 8.70356C5.2471 8.83639 5.34596 8.93521 5.46661 9H1.52047ZM4.32047 4.54374C3.97528 4.54374 3.66026 4.45464 3.3754 4.27646C3.09054 4.09503 2.86266 3.85367 2.69174 3.55238C2.52083 3.25108 2.43537 2.91739 2.43537 2.5513C2.43537 2.19168 2.52083 1.86447 2.69174 1.56965C2.86266 1.2716 3.09054 1.0351 3.3754 0.860151C3.66026 0.681965 3.97528 0.592873 4.32047 0.592873C4.669 0.592873 4.9857 0.680346 5.27056 0.855292C5.55542 1.03024 5.78163 1.26512 5.94919 1.55994C6.12011 1.85475 6.20557 2.18197 6.20557 2.54158C6.20557 2.90767 6.12011 3.24298 5.94919 3.54752C5.77828 3.85205 5.55039 4.09503 5.26553 4.27646C4.98067 4.45464 4.66565 4.54374 4.32047 4.54374ZM4.32047 3.81965C4.5249 3.81965 4.71424 3.76296 4.88851 3.64957C5.06278 3.53294 5.20186 3.37905 5.30575 3.18791C5.40964 2.99352 5.46158 2.77808 5.46158 2.54158C5.46158 2.31156 5.40964 2.10421 5.30575 1.91955C5.20521 1.73488 5.0678 1.58909 4.89354 1.48218C4.72262 1.37203 4.5316 1.31695 4.32047 1.31695C4.11269 1.31695 3.92166 1.37203 3.7474 1.48218C3.57648 1.59233 3.43908 1.74136 3.33519 1.92927C3.23465 2.11393 3.18438 2.32127 3.18438 2.5513C3.18438 2.78456 3.23633 2.99838 3.34022 3.19276C3.44411 3.38391 3.58151 3.53618 3.75242 3.64957C3.92669 3.76296 4.11604 3.81965 4.32047 3.81965Z" fill="black"/>
</svg>
