<svg width="20" height="20" viewBox="0 0 20 20" fill="none" xmlns="http://www.w3.org/2000/svg">
<g clip-path="url(#clip0_4408_6600)">
<path d="M18.333 0.833008H8.33301C8.11199 0.833008 7.90003 0.920805 7.74375 1.07709C7.58747 1.23337 7.49967 1.44533 7.49967 1.66634V5.83301H1.66634C1.44533 5.83301 1.23337 5.92081 1.07709 6.07709C0.920805 6.23337 0.833008 6.44533 0.833008 6.66634V18.333C0.833008 18.554 0.920805 18.766 1.07709 18.9223C1.23337 19.0785 1.44533 19.1663 1.66634 19.1663H18.333C18.554 19.1663 18.766 19.0785 18.9223 18.9223C19.0785 18.766 19.1663 18.554 19.1663 18.333V1.66634C19.1663 1.44533 19.0785 1.23337 18.9223 1.07709C18.766 0.920805 18.554 0.833008 18.333 0.833008ZM2.49967 7.49967H7.49967V17.4997H2.49967V7.49967ZM17.4997 17.4997H9.16634V2.49967H17.4997V17.4997ZM15.833 5.83301H10.833V4.16634H15.833V5.83301ZM15.833 9.16634H10.833V7.49967H15.833V9.16634ZM15.833 12.4997H10.833V10.833H15.833V12.4997ZM15.833 15.833H10.833V14.1663H15.833V15.833ZM4.16634 8.33301H5.83301V9.99967H4.16634V8.33301ZM4.16634 11.6663H5.83301V13.333H4.16634V11.6663ZM4.16634 14.9997H5.83301V16.6663H4.16634V14.9997Z" fill="currentColor"/>
</g>
<defs>
<clipPath id="clip0_4408_6600">
<rect width="20" height="20" fill="currentColor"/>
</clipPath>
</defs>
</svg>
