<svg width="20" height="20" viewBox="0 0 20 20" fill="none" xmlns="http://www.w3.org/2000/svg">
<g clip-path="url(#clip0_4408_6603)">
<path d="M10.0003 1.66699C14.6027 1.66699 18.3337 5.39795 18.3337 10.0003C18.3337 14.6027 14.6027 18.3337 10.0003 18.3337C5.39795 18.3337 1.66699 14.6027 1.66699 10.0003C1.66699 5.39795 5.39795 1.66699 10.0003 1.66699ZM10.0003 3.33366C6.31843 3.33366 3.33366 6.31843 3.33366 10.0003C3.33366 13.6822 6.31843 16.667 10.0003 16.667C13.6822 16.667 16.667 13.6822 16.667 10.0003C16.667 6.31843 13.6822 3.33366 10.0003 3.33366ZM9.99199 8.33366C10.4568 8.33366 10.8337 8.71049 10.8337 9.17533V13.4452C11.0827 13.5892 11.2503 13.8586 11.2503 14.167C11.2503 14.6272 10.8772 15.0003 10.417 15.0003H10.0087C9.54374 15.0003 9.16699 14.6235 9.16699 14.1587V10.0003C8.70674 10.0003 8.33366 9.62724 8.33366 9.16699C8.33366 8.70674 8.70674 8.33366 9.16699 8.33366H9.99199ZM10.0003 5.83366C10.4606 5.83366 10.8337 6.20676 10.8337 6.66699C10.8337 7.12723 10.4606 7.50033 10.0003 7.50033C9.54008 7.50033 9.16699 7.12723 9.16699 6.66699C9.16699 6.20676 9.54008 5.83366 10.0003 5.83366Z" fill="currentColor"/>
</g>
<defs>
<clipPath id="clip0_4408_6603">
<rect width="20" height="20" fill="currentColor"/>
</clipPath>
</defs>
</svg>
