<svg width="20" height="20" viewBox="0 0 20 20" fill="none" xmlns="http://www.w3.org/2000/svg">
<path fill-rule="evenodd" clip-rule="evenodd" d="M5 17C3.89543 17 3 16.1046 3 15V12C3 10.8954 3.89543 10 5 10C6.10457 10 7 10.8954 7 12V15C7 16.1046 6.10457 17 5 17Z" stroke="currentColor" stroke-width="2" stroke-linecap="round" stroke-linejoin="round"/>
<path fill-rule="evenodd" clip-rule="evenodd" d="M15 17C13.8954 17 13 16.1046 13 15V12C13 10.8954 13.8954 10 15 10C16.1046 10 17 10.8954 17 12V15C17 16.1046 16.1046 17 15 17Z" stroke="currentColor" stroke-width="2" stroke-linecap="round" stroke-linejoin="round"/>
<path d="M17 12V10C17 6.13401 13.866 3 10 3C6.13401 3 3 6.13401 3 10V12" stroke="currentColor" stroke-width="2" stroke-linecap="round" stroke-linejoin="round"/>
</svg>
