<svg width="20" height="20" viewBox="0 0 20 20" fill="none" xmlns="http://www.w3.org/2000/svg">
<path fill-rule="evenodd" clip-rule="evenodd" d="M10.0003 3.33366C6.31843 3.33366 3.33366 6.31843 3.33366 10.0003C3.33366 13.6822 6.31843 16.667 10.0003 16.667C13.6822 16.667 16.667 13.6822 16.667 10.0003C16.667 6.31843 13.6822 3.33366 10.0003 3.33366ZM1.66699 10.0003C1.66699 5.39795 5.39795 1.66699 10.0003 1.66699C14.6027 1.66699 18.3337 5.39795 18.3337 10.0003C18.3337 14.6027 14.6027 18.3337 10.0003 18.3337C5.39795 18.3337 1.66699 14.6027 1.66699 10.0003ZM9.85733 5.63146C10.3176 5.63146 10.6907 6.00455 10.6907 6.46479V10.6041L13.6297 11.7214C14.06 11.8849 14.2762 12.3662 14.1126 12.7964C13.9491 13.2267 13.4677 13.4428 13.0376 13.2792L9.56124 11.9578C9.23783 11.8348 9.02399 11.5248 9.02399 11.1788V6.46479C9.02399 6.00455 9.39708 5.63146 9.85733 5.63146Z" fill="currentColor"/>
</svg>
