<svg width="20" height="20" viewBox="0 0 20 20" fill="none" xmlns="http://www.w3.org/2000/svg">
<path d="M6.66634 5.83333H9.99967M12.4997 12.5H13.333M6.66634 9.16667H13.333M6.66634 13.3333L7.49967 14.1667L9.16634 12.5M5.99967 17.5H13.9997C14.9331 17.5 15.3998 17.5 15.7563 17.3183C16.0699 17.1586 16.3249 16.9036 16.4847 16.59C16.6663 16.2335 16.6663 15.7667 16.6663 14.8333V5.16667C16.6663 4.23325 16.6663 3.76653 16.4847 3.41002C16.3249 3.09641 16.0699 2.84144 15.7563 2.68166C15.3998 2.5 14.9331 2.5 13.9997 2.5H5.99967C5.06626 2.5 4.59954 2.5 4.24302 2.68166C3.92942 2.84144 3.67445 3.09641 3.51467 3.41002C3.33301 3.76653 3.33301 4.23324 3.33301 5.16667V14.8333C3.33301 15.7667 3.33301 16.2335 3.51467 16.59C3.67445 16.9036 3.92942 17.1586 4.24302 17.3183C4.59954 17.5 5.06625 17.5 5.99967 17.5Z" stroke="currentColor" stroke-width="1.8" stroke-linecap="round" stroke-linejoin="round"/>
</svg>
