<svg width="24" height="24" viewBox="0 0 24 24" fill="none" xmlns="http://www.w3.org/2000/svg">
<path d="M21.7265 16.8053C21.1518 15.8001 20.4668 13.8807 20.4668 10.4464V9.71776C20.4668 4.94591 16.6975 1.0352 12.0644 1.00021C12.0428 1.0001 12.0213 1.00004 11.9998 1C9.75183 1.00286 7.59702 1.91315 6.00939 3.53063C4.42176 5.14812 3.53135 7.34032 3.53404 9.625V10.4464C3.53404 13.8805 2.84863 15.7997 2.27363 16.8049C2.09523 17.1177 2.00087 17.4728 2.00001 17.8344C1.99914 18.196 2.0918 18.5514 2.2687 18.8652C2.44388 19.179 2.69823 19.4396 3.00554 19.6203C3.31284 19.8009 3.66199 19.895 4.01699 19.8929H7.5739C7.67452 21.0152 8.18435 22.0588 9.00328 22.8188C9.82221 23.5787 10.8911 24 12 24C13.1089 24 14.1778 23.5787 14.9968 22.8188C15.8157 22.0588 16.3255 21.0152 16.4261 19.8929H19.983C20.338 19.895 20.6871 19.8009 20.9944 19.6203C21.3017 19.4397 21.5561 19.1791 21.7312 18.8653C21.9081 18.5516 22.0008 18.1962 22 17.8346C21.9992 17.4731 21.9048 17.1181 21.7265 16.8053ZM12 21.5357C11.5344 21.5351 11.0833 21.3714 10.7226 21.0721C10.362 20.7728 10.1139 20.3564 10.0201 19.8929H13.9799C13.8862 20.3564 13.6381 20.7728 13.2774 21.0721C12.9168 21.3714 12.4656 21.5351 12 21.5357ZM4.68888 17.4286C5.72878 15.216 5.95875 12.4541 5.95875 10.4464V9.625C5.95609 7.99381 6.59111 6.42835 7.72412 5.273C8.85713 4.11765 10.3953 3.46704 12.0003 3.46429C12.0156 3.46429 12.0312 3.46439 12.0465 3.46449C15.3524 3.48936 18.0421 6.29467 18.0421 9.71776V10.4464C18.0421 12.4541 18.2719 15.2159 19.3113 17.4286L4.68888 17.4286Z" fill="currentColor"/>
</svg>
