<svg width="24" height="24" viewBox="0 0 24 24" fill="none" xmlns="http://www.w3.org/2000/svg">
<g clip-path="url(#clip0_3103_6256)">
<path d="M23.7478 8.34771L20.9732 3.5844C20.8441 3.36278 20.6321 3.20149 20.3843 3.1361C20.1363 3.07058 19.8725 3.10656 19.651 3.23549L17.426 4.5319C17.1512 4.33013 16.8735 4.1492 16.5868 3.98534C16.3004 3.82132 16.0037 3.67334 15.6904 3.53847L15.6811 0.963509C15.6802 0.707083 15.5773 0.461483 15.3954 0.280855C15.2134 0.100227 14.9671 -0.000892639 14.7105 3.43323e-05L9.19802 0.0202579C8.94147 0.0212688 8.69583 0.124075 8.5152 0.306093C8.33534 0.487226 8.23451 0.732193 8.23451 0.98723C8.23451 0.988493 8.23451 0.989841 8.23451 0.990978L8.24471 3.56881C7.63537 3.84032 7.05906 4.17672 6.52089 4.57459L4.28177 3.293C3.81826 3.02781 3.22737 3.18847 2.96231 3.65198L0.224411 8.43564C0.0970406 8.65815 0.0633757 8.92208 0.130411 9.16978C0.19774 9.41719 0.360545 9.62786 0.583222 9.7551L2.82259 11.0369C2.75257 11.7012 2.75463 12.3706 2.82866 13.0325L0.600118 14.33C0.378368 14.4591 0.21708 14.6711 0.151562 14.9189C0.0862122 15.1668 0.121899 15.4307 0.250955 15.6523L3.0258 20.4158C3.29462 20.8771 3.88655 21.0333 4.34796 20.7646L6.57393 19.4684C6.84713 19.669 7.12487 19.8496 7.41235 20.0141C7.69987 20.1786 7.99612 20.3266 8.30791 20.4608L8.31781 23.0368C8.31987 23.5708 8.7544 24.0019 9.28828 24L14.8008 23.9798C15.0572 23.9788 15.303 23.876 15.4836 23.6939C15.6635 23.5128 15.7643 23.268 15.7643 23.0128C15.7643 23.0116 15.7643 23.0104 15.7643 23.0092L15.7546 20.4305C16.3636 20.1595 16.9399 19.8232 17.4785 19.4248L19.7176 20.7062C19.9402 20.8336 20.2041 20.8674 20.4517 20.8002C20.6991 20.7329 20.9097 20.5701 21.0372 20.3474L23.7749 15.5638C23.8615 15.4122 23.9026 15.2472 23.9026 15.0843C23.9026 14.7488 23.728 14.4227 23.4159 14.244L21.1765 12.9625C21.2469 12.2968 21.2448 11.6275 21.1705 10.9675L23.3989 9.66983C23.6206 9.54064 23.7818 9.3288 23.8474 9.08088C23.9127 8.83322 23.8771 8.56933 23.7478 8.34771ZM19.6302 9.62693C19.2755 9.83347 19.0903 10.242 19.167 10.6439C19.3328 11.5114 19.3355 12.4209 19.1755 13.3037C19.1024 13.707 19.291 14.112 19.6466 14.3156L21.6162 15.4426L19.839 18.5476L17.8696 17.4205C17.514 17.2169 17.0688 17.2596 16.7585 17.5267C16.0743 18.1157 15.3009 18.5668 14.4599 18.8673C14.0752 19.0049 13.8183 19.3695 13.8183 19.7779C13.8183 19.779 13.8183 19.7803 13.8183 19.7814L13.8267 22.0493L10.248 22.0626L10.2394 19.795C10.2377 19.3853 9.97826 19.0211 9.5916 18.8859C9.14679 18.7304 8.74812 18.5504 8.37321 18.3356C7.99763 18.1207 7.64063 17.8684 7.28207 17.5641C6.96957 17.2989 6.52396 17.2597 6.16991 17.4658L4.21031 18.6068L2.40892 15.5148L4.36802 14.3739C4.72194 14.1677 4.90821 13.7611 4.83166 13.3587C4.66687 12.4858 4.66405 11.5757 4.82365 10.6963C4.89751 10.2936 4.70812 9.88778 4.35268 9.68428L2.38318 8.55707L4.16034 5.45194L6.12976 6.57914C6.48524 6.78248 6.9303 6.73993 7.24074 6.47292C7.92419 5.8849 8.69802 5.43353 9.54082 5.1313C9.92504 4.99348 10.1813 4.62911 10.1813 4.22104C10.1813 4.21973 10.1813 4.21843 10.1813 4.21716L10.1723 1.95083L13.7506 1.93756L13.7587 4.20364C13.7603 4.61284 14.0192 4.97684 14.4053 5.11242C14.8542 5.27026 15.2535 5.45046 15.6262 5.66362C15.9989 5.87698 16.3567 6.12991 16.7199 6.43703C17.0324 6.70125 17.4774 6.74014 17.8309 6.53415L19.7889 5.39325L21.5901 8.48549L19.6302 9.62693Z" fill="currentColor"/>
<path d="M14.597 7.46095C13.3847 6.76692 11.9746 6.58684 10.6267 6.95336C9.27872 7.31988 8.15404 8.18965 7.46026 9.40197C7.00775 10.1924 6.76855 11.0894 6.76855 11.9958C6.76855 13.8685 7.77741 15.6093 9.40128 16.5388C11.9042 17.9711 15.1058 17.1003 16.5382 14.5976C16.9906 13.807 17.2296 12.9101 17.2296 12.0037C17.2297 10.1311 16.221 8.39025 14.597 7.46095ZM13.6364 9.13935C14.6599 9.72509 15.2958 10.8228 15.2958 12.0038C15.2958 12.5738 15.145 13.1386 14.8598 13.6371C13.957 15.2143 11.9394 15.763 10.3619 14.8604C9.33846 14.2745 8.7025 13.1768 8.7025 11.9958C8.7025 11.4258 8.85333 10.8611 9.13879 10.3626C9.5761 9.59848 10.2847 9.05049 11.1342 8.81934C11.9837 8.58845 12.8723 8.70204 13.6364 9.13935Z" fill="currentColor"/>
</g>
</svg>
