<svg width="28" height="28" viewBox="0 0 28 28" fill="none" xmlns="http://www.w3.org/2000/svg">
<path fill-rule="evenodd" clip-rule="evenodd" d="M18.5252 4.32493C19.892 2.95809 22.1081 2.9581 23.4749 4.32493L23.6751 4.5251C25.0419 5.89193 25.0419 8.10801 23.6751 9.47485L21.6482 11.5017L10.1583 22.9917C10.0088 23.1411 9.82146 23.2472 9.61632 23.2985L4.94966 24.4652C4.55208 24.5646 4.13151 24.448 3.84173 24.1583C3.55195 23.8685 3.43546 23.4479 3.53486 23.0503L4.70153 18.3837C4.75282 18.1786 4.85889 17.9912 5.0084 17.8416L16.5654 6.2847L18.5252 4.32493ZM21.825 5.97485C21.3694 5.51924 20.6306 5.51924 20.1751 5.97485L19.0246 7.12532L20.8392 9.01087L22.0252 7.82493C22.4807 7.36933 22.4807 6.63063 22.0252 6.17501L21.825 5.97485ZM19.189 10.6611L17.3744 8.77553L6.88682 19.2631L6.27012 21.7299L8.7369 21.1132L19.189 10.6611Z" fill="currentColor"/>
</svg>
