<svg width="25" height="25" viewBox="0 0 25 25" fill="none" xmlns="http://www.w3.org/2000/svg">
<path d="M12.5 24.4922C10.8516 24.4922 9.30469 24.1797 7.85938 23.5547C6.41406 22.9375 5.14453 22.082 4.05078 20.9883C2.95703 19.8945 2.09766 18.625 1.47266 17.1797C0.855469 15.7344 0.546875 14.1875 0.546875 12.5391C0.546875 10.8906 0.855469 9.34375 1.47266 7.89844C2.09766 6.45312 2.95703 5.18359 4.05078 4.08984C5.14453 2.98828 6.41406 2.12891 7.85938 1.51172C9.30469 0.894531 10.8516 0.585938 12.5 0.585938C14.1484 0.585938 15.6953 0.894531 17.1406 1.51172C18.5859 2.12891 19.8555 2.98828 20.9492 4.08984C22.043 5.18359 22.8984 6.45312 23.5156 7.89844C24.1406 9.34375 24.4531 10.8906 24.4531 12.5391C24.4531 14.1875 24.1406 15.7344 23.5156 17.1797C22.8984 18.625 22.043 19.8945 20.9492 20.9883C19.8555 22.082 18.5859 22.9375 17.1406 23.5547C15.6953 24.1797 14.1484 24.4922 12.5 24.4922ZM12.5 22.5C13.875 22.5 15.1641 22.2422 16.3672 21.7266C17.5703 21.2109 18.6289 20.4961 19.543 19.582C20.457 18.668 21.1719 17.6094 21.6875 16.4062C22.2031 15.2031 22.4609 13.9141 22.4609 12.5391C22.4609 11.1641 22.2031 9.875 21.6875 8.67188C21.1719 7.46094 20.457 6.40234 19.543 5.49609C18.6289 4.58203 17.5703 3.86719 16.3672 3.35156C15.1641 2.83594 13.875 2.57812 12.5 2.57812C11.125 2.57812 9.83594 2.83594 8.63281 3.35156C7.42969 3.86719 6.37109 4.58203 5.45703 5.49609C4.54297 6.40234 3.82812 7.46094 3.3125 8.67188C2.79688 9.875 2.53906 11.1641 2.53906 12.5391C2.53906 13.9141 2.79688 15.2031 3.3125 16.4062C3.82812 17.6094 4.54297 18.668 5.45703 19.582C6.37109 20.4961 7.42969 21.2109 8.63281 21.7266C9.83594 22.2422 11.125 22.5 12.5 22.5ZM20.5156 20.2617C19.8047 20.957 18.9688 21.5508 18.0078 22.043C17.0547 22.5352 16.0898 22.9102 15.1133 23.168C14.1367 23.4336 13.2656 23.5664 12.5 23.5664C11.7422 23.5664 10.8711 23.4336 9.88672 23.168C8.91016 22.9102 7.94141 22.5352 6.98047 22.043C6.01953 21.5508 5.1875 20.957 4.48438 20.2617L4.51953 20.1211C4.71484 19.5508 5.17188 18.9883 5.89062 18.4336C6.60938 17.8789 7.53125 17.4219 8.65625 17.0625C9.78906 16.7031 11.0703 16.5234 12.5 16.5234C13.9375 16.5234 15.2188 16.7031 16.3438 17.0625C17.4766 17.4219 18.3984 17.8789 19.1094 18.4336C19.8281 18.9883 20.2852 19.5547 20.4805 20.1328L20.5156 20.2617ZM12.5 14.5312C11.75 14.5234 11.0703 14.3281 10.4609 13.9453C9.85938 13.5547 9.37891 13.0273 9.01953 12.3633C8.66797 11.6992 8.48828 10.9492 8.48047 10.1133C8.47266 9.32422 8.64844 8.60156 9.00781 7.94531C9.36719 7.28906 9.85156 6.76562 10.4609 6.375C11.0703 5.97656 11.75 5.77734 12.5 5.77734C13.25 5.77734 13.9258 5.97656 14.5273 6.375C15.1367 6.76562 15.6211 7.28906 15.9805 7.94531C16.3398 8.60156 16.5195 9.32422 16.5195 10.1133C16.5195 10.9492 16.3398 11.7031 15.9805 12.375C15.6289 13.0469 15.1484 13.5781 14.5391 13.9688C13.9297 14.3516 13.25 14.5391 12.5 14.5312Z" fill="#3E3E3E"/>
</svg>
