<svg width="60" height="60" viewBox="0 0 60 60" fill="none" xmlns="http://www.w3.org/2000/svg">
<path d="M0 21.0604V50.2364C0 51.8264 1.3009 53.1273 2.8909 53.1273H8.82434V18.1768H2.8909C1.3009 18.1768 0 19.4704 0 21.0604Z" fill="currentColor"/>
<path d="M57.1161 18.1768H51.1826V53.1273H57.1161C58.6988 53.1273 59.9997 51.8264 59.9997 50.2364V21.0604C59.9997 19.4704 58.6988 18.1768 57.1161 18.1768Z" fill="currentColor"/>
<path d="M41.9258 9.5652C41.9258 8.08066 40.7182 6.87305 39.234 6.87305H20.7688C19.2838 6.87305 18.0763 8.08066 18.0763 9.5652V18.1768H14.5488V53.1274H45.4522V18.1768H41.9261V9.5652H41.9258ZM23.1352 11.932H36.8668V18.1768H23.1352V11.932Z" fill="currentColor"/>
</svg>
