<svg width="60" height="60" viewBox="0 0 60 60" fill="none" xmlns="http://www.w3.org/2000/svg">
<path d="M26.1924 52.3842L24.6924 51.2304C23.077 50.0765 23.077 47.7689 23.077 46.615V43.2689C23.077 42.3458 22.2693 41.5381 21.3462 41.5381H14.4232C13.5001 41.5381 12.6924 42.3458 12.6924 43.2689V52.1535C12.6924 55.2689 14.5385 57.6919 17.4232 57.6919H23.077C26.4232 57.6919 26.6539 55.3842 26.6539 55.3842C26.6539 55.3842 27.2308 53.3073 26.1924 52.3842Z" fill="currentColor"/>
<path d="M51.923 20.7693V5.07701C51.923 5.07701 51.923 5.07701 51.923 4.96163C51.923 2.19239 48.4615 1.3847 46.6153 3.23086L36.3461 12.9232C34.7307 14.3078 32.6538 14.8847 30.5768 14.8847H13.0384C7.03839 15.0001 2.30762 20.1924 2.30762 26.1924V26.4232C2.30762 32.4232 7.03839 36.9232 13.0384 36.9232H30.5768C32.7692 36.9232 34.8461 37.8462 36.4615 39.2309L46.6153 49.1539C48.4615 51.0001 51.923 50.3078 51.923 47.5385C51.923 47.5385 51.923 47.5385 51.923 47.4232V31.8462C55.3845 31.8462 57.4615 29.4232 57.4615 26.3078C57.4615 23.1924 55.3845 20.7693 51.923 20.7693Z" fill="currentColor"/>
</svg>
