<svg width="13" height="9" viewBox="0 0 13 9" fill="none" xmlns="http://www.w3.org/2000/svg">
<path d="M2.95508 6.94043C2.81185 6.94043 2.69629 6.89648 2.6084 6.80859C2.52051 6.7207 2.47656 6.6084 2.47656 6.47168V5.56836C2.47656 5.42839 2.52051 5.31608 2.6084 5.23145C2.69629 5.14355 2.81185 5.09961 2.95508 5.09961H4.15137C4.2946 5.09961 4.41016 5.14355 4.49805 5.23145C4.58594 5.31608 4.62988 5.42839 4.62988 5.56836V6.47168C4.62988 6.6084 4.58594 6.7207 4.49805 6.80859C4.41016 6.89648 4.2946 6.94043 4.15137 6.94043H2.95508ZM1.1582 3.36133V2.25293H11.8467V3.36133H1.1582ZM2.2959 8.64941C1.78483 8.64941 1.40072 8.52246 1.14355 8.26855C0.889648 8.0179 0.762695 7.64193 0.762695 7.14062V1.82324C0.762695 1.31868 0.889648 0.941081 1.14355 0.69043C1.40072 0.436523 1.78483 0.30957 2.2959 0.30957H10.7041C11.2152 0.30957 11.5977 0.436523 11.8516 0.69043C12.1087 0.944336 12.2373 1.32194 12.2373 1.82324V7.14062C12.2373 7.64193 12.1087 8.0179 11.8516 8.26855C11.5977 8.52246 11.2152 8.64941 10.7041 8.64941H2.2959ZM2.30566 7.86328H10.6943C10.9352 7.86328 11.1208 7.7998 11.251 7.67285C11.3844 7.54264 11.4512 7.35059 11.4512 7.09668V1.86719C11.4512 1.61328 11.3844 1.42122 11.251 1.29102C11.1208 1.16081 10.9352 1.0957 10.6943 1.0957H2.30566C2.06152 1.0957 1.87435 1.16081 1.74414 1.29102C1.61393 1.42122 1.54883 1.61328 1.54883 1.86719V7.09668C1.54883 7.35059 1.61393 7.54264 1.74414 7.67285C1.87435 7.7998 2.06152 7.86328 2.30566 7.86328Z" fill="currentColor"/>
</svg>
