<svg width="29" height="30" viewBox="0 0 29 30" fill="none" xmlns="http://www.w3.org/2000/svg">
<rect x="1" y="1.5" width="27" height="27" rx="13.5" stroke="currentColor" stroke-width="2"/>
<path d="M12.8906 21.8828C12.474 21.8828 12.1198 21.7031 11.8281 21.3438L7.78125 16.3594C7.66667 16.224 7.58333 16.0911 7.53125 15.9609C7.48438 15.8307 7.46094 15.6953 7.46094 15.5547C7.46094 15.2422 7.5651 14.9844 7.77344 14.7812C7.98177 14.5781 8.24479 14.4766 8.5625 14.4766C8.92188 14.4766 9.22396 14.6302 9.46875 14.9375L12.8594 19.2344L19.4766 8.75C19.612 8.54167 19.7526 8.39583 19.8984 8.3125C20.0443 8.22396 20.2266 8.17969 20.4453 8.17969C20.763 8.17969 21.0234 8.27865 21.2266 8.47656C21.4297 8.67448 21.5312 8.92708 21.5312 9.23438C21.5312 9.35938 21.5104 9.48438 21.4688 9.60938C21.4271 9.73438 21.362 9.86458 21.2734 10L13.9609 21.3125C13.7109 21.6927 13.3542 21.8828 12.8906 21.8828Z" fill="currentColor"/>
</svg>
