<svg width="32" height="32" viewBox="0 0 32 32" fill="none" xmlns="http://www.w3.org/2000/svg">
<path fill-rule="evenodd" clip-rule="evenodd" d="M2.66634 1.33398C1.92997 1.33398 1.33301 1.93094 1.33301 2.66732C1.33301 3.40369 1.92997 4.00065 2.66634 4.00065H4.29197L9.04428 23.0099C7.64336 23.6321 6.66634 25.0356 6.66634 26.6673C6.66634 28.8765 8.45721 30.6673 10.6663 30.6673C12.8755 30.6673 14.6663 28.8765 14.6663 26.6673C14.6663 26.1999 14.5861 25.7511 14.4387 25.334H20.2273C20.0799 25.7511 19.9997 26.1999 19.9997 26.6673C19.9997 28.8765 21.7905 30.6673 23.9997 30.6673C26.2089 30.6673 27.9997 28.8765 27.9997 26.6673C27.9997 24.4581 26.2089 22.6673 23.9997 22.6673H11.7074L11.0407 20.0007H23.9997C26.7519 20.0007 28.4022 18.2619 29.3179 16.3419C30.2129 14.4656 30.5243 12.2232 30.633 10.5922C30.7842 8.32084 28.9067 6.66732 26.8278 6.66732H7.70738L6.87902 3.35389C6.58224 2.16677 5.51562 1.33398 4.29197 1.33398H2.66634ZM23.9997 17.334H10.374L8.37405 9.33398H26.8278C27.5653 9.33398 28.0081 9.87632 27.9722 10.415C27.8709 11.9369 27.5871 13.7764 26.9111 15.1939C26.2559 16.5675 25.3598 17.334 23.9997 17.334ZM23.9997 27.9924C23.2678 27.9924 22.6746 27.3992 22.6746 26.6673C22.6746 25.9355 23.2678 25.3423 23.9997 25.3423C24.7315 25.3423 25.3247 25.9355 25.3247 26.6673C25.3247 27.3992 24.7315 27.9924 23.9997 27.9924ZM9.34124 26.6673C9.34124 27.3992 9.9345 27.9924 10.6663 27.9924C11.3982 27.9924 11.9914 27.3992 11.9914 26.6673C11.9914 25.9355 11.3982 25.3423 10.6663 25.3423C9.9345 25.3423 9.34124 25.9355 9.34124 26.6673Z" fill="currentColor"/>
</svg>
