<svg width="32" height="32" viewBox="0 0 32 32" fill="none" xmlns="http://www.w3.org/2000/svg">
<path d="M16 14.7988C17.6825 14.7988 19.0615 16.1773 19.0615 17.8965C19.0614 19.6165 17.6826 20.9932 16 20.9932C14.3173 20.993 12.9386 19.6161 12.9385 17.8965C12.9385 16.1776 14.3173 14.799 16 14.7988Z" stroke="currentColor" stroke-width="2"/>
<path d="M30.1078 8.88955C29.5603 8.33085 28.7889 7.97919 27.9465 7.97919H24.6416C24.3752 7.98025 24.1269 7.81962 24.0125 7.56032L23.0224 5.32657C22.5327 4.21986 21.4441 3.5 20.2359 3.5H11.764C10.5563 3.5 9.46725 4.21986 8.97641 5.32657L7.98735 7.56032C7.87298 7.81962 7.62413 7.98025 7.35829 7.97919H4.05343C3.21156 7.97919 2.43859 8.33079 1.89004 8.88955C1.34148 9.44666 1 10.2252 1 11.0732V25.4071C1 26.2556 1.34148 27.0336 1.89004 27.5907C2.43853 28.1495 3.21156 28.5011 4.05343 28.5H17.2106H27.9466C28.789 28.5011 29.5604 28.1494 30.1079 27.5907C30.659 27.0336 31 26.2556 31 25.4071V11.0732C30.9999 10.2252 30.659 9.44559 30.1078 8.88955ZM20.8904 22.7518C19.6435 24.0223 17.9084 24.8122 16.0003 24.8122C14.091 24.8122 12.3565 24.0224 11.1096 22.7518C9.86059 21.4845 9.08645 19.7246 9.08756 17.7919C9.08651 15.8591 9.86059 14.1008 11.1096 12.8314C12.3564 11.5619 14.0905 10.7711 16.0003 10.7727C17.9084 10.7711 19.6435 11.5619 20.8904 12.8314C22.1394 14.1009 22.9135 15.8591 22.9119 17.7919C22.9134 19.7246 22.1394 21.4845 20.8904 22.7518Z" stroke="currentColor" stroke-width="2"/>
</svg>
