<svg width="32" height="32" viewBox="0 0 32 32" fill="none" xmlns="http://www.w3.org/2000/svg">
<path d="M15.9521 2.7373L15.6933 1.77137L15.6931 1.77145L15.9521 2.7373ZM17.0273 2.7373L17.2863 1.7714L17.2862 1.7714L17.0273 2.7373ZM18.9365 4.25293L18.2294 4.96002L18.2294 4.96004L18.9365 4.25293ZM20.4072 5.72363L19.7001 6.43074L20.41 7.14067L21.1171 6.42792L20.4072 5.72363ZM20.8955 5.23145L20.1884 4.52436L20.1856 4.52716L20.8955 5.23145ZM22.8525 3.84668V2.84668L22.8523 2.84668L22.8525 3.84668ZM24.8105 5.23145L24.1034 5.93852L24.1036 5.93873L24.8105 5.23145ZM26.7686 7.18848L27.4777 6.48343L27.4755 6.48119L26.7686 7.18848ZM26.9355 7.35645L26.2264 8.06149L26.2276 8.06267L26.9355 7.35645ZM28.1523 9.14648H29.1523V9.14638L28.1523 9.14648ZM26.7686 11.1045L27.4715 11.8158L27.4756 11.8116L26.7686 11.1045ZM26.2705 11.5967L25.5676 10.8854L24.8521 11.5925L25.5634 12.3038L26.2705 11.5967ZM26.2734 11.5996L25.5663 12.3068L25.5734 12.3137L26.2734 11.5996ZM26.7676 12.084L27.4744 11.3765L27.4676 11.3699L26.7676 12.084ZM27.7471 13.0625L28.4541 12.3554L28.4538 12.355L27.7471 13.0625ZM29.2627 14.9727L28.2968 15.2315L28.2968 15.2317L29.2627 14.9727ZM29.2627 16.0479L30.2285 16.307L30.2286 16.3068L29.2627 16.0479ZM27.7471 17.957L28.4542 18.6641L27.7471 17.957ZM25.8369 19.4736L25.5781 18.5077L25.5779 18.5077L25.8369 19.4736ZM24.7617 19.4736L24.5026 20.4395L24.5027 20.4395L24.7617 19.4736ZM22.8525 17.957L23.5596 17.2499L23.5594 17.2497L22.8525 17.957ZM21.3838 16.4893L20.6767 17.1964L20.6769 17.1966L21.3838 16.4893ZM21.3828 16.4883L22.0899 15.7812L21.3831 15.0743L20.676 15.7809L21.3828 16.4883ZM16.4873 21.3799L15.7805 20.6725L15.0728 21.3796L15.7802 22.087L16.4873 21.3799ZM16.4902 21.3828L17.1976 20.6759L17.1973 20.6757L16.4902 21.3828ZM17.958 22.8516L17.2507 23.5584L17.2509 23.5587L17.958 22.8516ZM19.4746 24.7607L20.4405 24.5017L20.4405 24.5017L19.4746 24.7607ZM19.4746 25.8359L18.5087 25.5769L18.5087 25.5771L19.4746 25.8359ZM17.958 27.7461L18.6651 28.4532L17.958 27.7461ZM16.0488 29.2617L16.3078 30.2276L16.3079 30.2276L16.0488 29.2617ZM14.9736 29.2617L15.2327 28.2958L15.2325 28.2958L14.9736 29.2617ZM13.0635 27.7461L12.356 28.4528L12.3563 28.4532L13.0635 27.7461ZM12.085 26.7666L12.7924 26.0598L12.7921 26.0595L12.085 26.7666ZM11.5928 26.2744L12.2999 25.5673L11.5892 24.8567L10.8822 25.5708L11.5928 26.2744ZM11.1055 26.7666L11.8126 27.4737L11.8161 27.4702L11.1055 26.7666ZM9.14844 28.1514V29.1514H9.14872L9.14844 28.1514ZM7.19043 26.7666L7.89756 26.0595L7.89754 26.0595L7.19043 26.7666ZM5.23242 24.8086L4.52529 25.5157L4.52532 25.5157L5.23242 24.8086ZM3.84863 22.8516H2.84863L2.84863 22.8518L3.84863 22.8516ZM5.23242 20.8936L4.52884 20.1829L4.52535 20.1864L5.23242 20.8936ZM5.72461 20.4062L6.42818 21.1169L7.14236 20.4098L6.43172 19.6991L5.72461 20.4062ZM4.25391 18.9355L4.96101 18.2284L4.96099 18.2284L4.25391 18.9355ZM2.73828 17.0264L1.77237 17.2852L1.77239 17.2853L2.73828 17.0264ZM2.73828 15.9512L1.77242 15.6921L1.77234 15.6924L2.73828 15.9512ZM4.25391 14.042L3.5468 13.3349L3.54677 13.3349L4.25391 14.042ZM6.16406 12.5254L5.9053 11.5595L5.90525 11.5595L6.16406 12.5254ZM7.23828 12.5254L7.49709 11.5595L7.49691 11.5594L7.23828 12.5254ZM9.14844 14.042L8.44134 14.7491L8.44157 14.7493L9.14844 14.042ZM10.6172 15.5098L11.3243 14.8027L11.3241 14.8024L10.6172 15.5098ZM10.6191 15.5117L9.91203 16.2188L10.6196 16.9264L11.3267 16.2184L10.6191 15.5117ZM15.5098 10.6152L16.2173 11.3219L16.9233 10.615L16.2171 9.90836L15.5098 10.6152ZM14.043 9.14746L14.7503 8.44059L14.7501 8.44036L14.043 9.14746ZM12.5264 7.2373L11.5604 7.49594L11.5604 7.49612L12.5264 7.2373ZM12.5264 6.16309L11.5604 5.90428L11.5604 5.90434L12.5264 6.16309ZM14.043 4.25293L13.3359 3.54579L13.3359 3.54583L14.043 4.25293ZM15.9521 2.7373L16.2109 3.70324C16.3936 3.65431 16.5861 3.65433 16.7685 3.70321L17.0273 2.7373L17.2862 1.7714C16.7646 1.63158 16.215 1.63161 15.6933 1.77137L15.9521 2.7373ZM17.0273 2.7373L16.7684 3.7032C16.8392 3.72218 16.9579 3.77237 17.2002 3.97432C17.4531 4.18511 17.7592 4.48981 18.2294 4.96002L18.9365 4.25293L19.6437 3.54584C19.1994 3.10153 18.8196 2.72044 18.4808 2.43805C18.1314 2.14682 17.7528 1.89646 17.2863 1.7714L17.0273 2.7373ZM18.9365 4.25293L18.2294 4.96004L19.7001 6.43074L20.4072 5.72363L21.1143 5.01653L19.6436 3.54582L18.9365 4.25293ZM20.4072 5.72363L21.1171 6.42792L21.6054 5.93573L20.8955 5.23145L20.1856 4.52716L19.6973 5.01935L20.4072 5.72363ZM20.8955 5.23145L21.6026 5.93852C22.0841 5.45702 22.3754 5.16849 22.612 4.98783C22.7208 4.9047 22.786 4.87031 22.82 4.8561C22.8461 4.84523 22.8519 4.84668 22.8527 4.84668L22.8525 3.84668L22.8523 2.84668C22.2589 2.84679 21.7891 3.09972 21.3981 3.39832C21.0301 3.67934 20.6296 4.08313 20.1884 4.52437L20.8955 5.23145ZM22.8525 3.84668V4.84668C22.8535 4.84668 22.8594 4.84525 22.8856 4.85617C22.9197 4.87041 22.985 4.90482 23.0939 4.98793C23.3305 5.16852 23.622 5.45708 24.1034 5.93852L24.8105 5.23145L25.5177 4.52437C25.0763 4.08293 24.6755 3.67911 24.3072 3.39803C23.9159 3.09941 23.446 2.84668 22.8525 2.84668V3.84668ZM24.8105 5.23145L24.1036 5.93873L26.0616 7.89576L26.7686 7.18848L27.4755 6.48119L25.5175 4.52416L24.8105 5.23145ZM26.7686 7.18848L26.0594 7.89352L26.2264 8.06149L26.9355 7.35645L27.6447 6.6514L27.4777 6.48343L26.7686 7.18848ZM26.9355 7.35645L26.2276 8.06267C26.646 8.48214 26.891 8.73917 27.0395 8.94325C27.1075 9.03657 27.1345 9.09181 27.1451 9.11903C27.1533 9.13987 27.1523 9.14478 27.1523 9.14659L28.1523 9.14648L29.1523 9.14638C29.1523 8.59144 28.9311 8.14359 28.6567 7.76643C28.3996 7.41316 28.0363 7.04393 27.6435 6.65022L26.9355 7.35645ZM28.1523 9.14648H27.1523C27.1523 9.14771 27.1537 9.15381 27.1428 9.18001C27.1286 9.21415 27.0942 9.27937 27.0113 9.38819C26.831 9.62462 26.5427 9.91615 26.0615 10.3974L26.7686 11.1045L27.4756 11.8116C27.9173 11.37 28.3209 10.9692 28.6018 10.6007C28.9003 10.2091 29.1523 9.73938 29.1523 9.14648H28.1523ZM26.7686 11.1045L26.0656 10.3932L25.5676 10.8854L26.2705 11.5967L26.9734 12.308L27.4715 11.8158L26.7686 11.1045ZM26.2705 11.5967L25.5634 12.3038L25.5663 12.3067L26.2734 11.5996L26.9805 10.8925L26.9776 10.8896L26.2705 11.5967ZM26.2734 11.5996L25.5734 12.3137L26.0676 12.7981L26.7676 12.084L27.4676 11.3699L26.9735 10.8855L26.2734 11.5996ZM26.7676 12.084L26.0608 12.7914L27.0403 13.77L27.7471 13.0625L28.4538 12.355L27.4743 11.3765L26.7676 12.084ZM27.7471 13.0625L27.04 13.7696C27.5102 14.2398 27.8149 14.5462 28.0256 14.7991C28.2274 15.0414 28.2777 15.1604 28.2968 15.2315L29.2627 14.9727L30.2286 14.7138C30.1037 14.2475 29.8536 13.8688 29.5623 13.5191C29.2799 13.18 28.8988 12.8 28.4541 12.3554L27.7471 13.0625ZM29.2627 14.9727L28.2968 15.2317C28.3457 15.414 28.3457 15.6064 28.2968 15.7889L29.2627 16.0479L30.2286 16.3068C30.3685 15.7851 30.3685 15.2353 30.2286 14.7136L29.2627 14.9727ZM29.2627 16.0479L28.2968 15.7887C28.2778 15.8596 28.2276 15.9784 28.0256 16.2207C27.8148 16.4736 27.5101 16.7798 27.04 17.2499L27.7471 17.957L28.4542 18.6641C28.8985 18.2198 29.2796 17.84 29.5619 17.5012C29.8531 17.1519 30.1034 16.7733 30.2285 16.307L29.2627 16.0479ZM27.7471 17.957L27.04 17.2499C26.5696 17.7203 26.2632 18.0253 26.0101 18.2363C25.7675 18.4386 25.6487 18.4888 25.5781 18.5077L25.8369 19.4736L26.0957 20.4396C26.5626 20.3145 26.9414 20.0638 27.2909 19.7724C27.6298 19.4899 28.0098 19.1086 28.4542 18.6641L27.7471 17.957ZM25.8369 19.4736L25.5779 18.5077C25.3956 18.5566 25.203 18.5566 25.0207 18.5078L24.7617 19.4736L24.5027 20.4395C25.0244 20.5794 25.5743 20.5794 26.0959 20.4395L25.8369 19.4736ZM24.7617 19.4736L25.0208 18.5078C24.9503 18.4889 24.8318 18.4387 24.5893 18.2364C24.3362 18.0253 24.0301 17.7203 23.5596 17.2499L22.8525 17.957L22.1454 18.6641C22.5896 19.1083 22.9694 19.4896 23.308 19.7721C23.6571 20.0634 24.0358 20.3143 24.5026 20.4395L24.7617 19.4736ZM22.8525 17.957L23.5594 17.2497L22.0907 15.7819L21.3838 16.4893L20.6769 17.1966L22.1457 18.6644L22.8525 17.957ZM21.3838 16.4893L22.0909 15.7822L22.0899 15.7812L21.3828 16.4883L20.6757 17.1954L20.6767 17.1964L21.3838 16.4893ZM21.3828 16.4883L20.676 15.7809L15.7805 20.6725L16.4873 21.3799L17.1941 22.0873L22.0896 17.1957L21.3828 16.4883ZM16.4873 21.3799L15.7802 22.087L15.7831 22.0899L16.4902 21.3828L17.1973 20.6757L17.1944 20.6728L16.4873 21.3799ZM16.4902 21.3828L15.7829 22.0897L17.2507 23.5584L17.958 22.8516L18.6653 22.1447L17.1976 20.6759L16.4902 21.3828ZM17.958 22.8516L17.2509 23.5587C17.7213 24.0291 18.0263 24.3352 18.2374 24.5883C18.4397 24.8308 18.4899 24.9494 18.5087 25.0198L19.4746 24.7607L20.4405 24.5017C20.3153 24.0348 20.0644 23.6561 19.7731 23.307C19.4906 22.9684 19.1093 22.5886 18.6651 22.1445L17.958 22.8516ZM19.4746 24.7607L18.5087 25.0198C18.5576 25.202 18.5576 25.3946 18.5087 25.5769L19.4746 25.8359L20.4405 26.0949C20.5804 25.5733 20.5804 25.0234 20.4405 24.5017L19.4746 24.7607ZM19.4746 25.8359L18.5087 25.5771C18.4898 25.6478 18.4396 25.7666 18.2373 26.0091C18.0263 26.2623 17.7213 26.5686 17.2509 27.039L17.958 27.7461L18.6651 28.4532C19.1095 28.0088 19.4909 27.6288 19.7734 27.2899C20.0648 26.9405 20.3155 26.5616 20.4405 26.0947L19.4746 25.8359ZM17.958 27.7461L17.2509 27.039C16.7807 27.5092 16.4746 27.8139 16.2217 28.0247C15.9794 28.2266 15.8606 28.2769 15.7898 28.2959L16.0488 29.2617L16.3079 30.2276C16.7743 30.1025 17.1528 29.8522 17.5022 29.561C17.841 29.2786 18.2208 28.8975 18.6651 28.4532L17.958 27.7461ZM16.0488 29.2617L15.7899 28.2958C15.6074 28.3448 15.4149 28.3447 15.2327 28.2958L14.9736 29.2617L14.7146 30.2276C15.2363 30.3675 15.786 30.3675 16.3078 30.2276L16.0488 29.2617ZM14.9736 29.2617L15.2325 28.2958C15.1614 28.2767 15.0424 28.2264 14.8 28.0246C14.5471 27.8139 14.2408 27.5092 13.7706 27.039L13.0635 27.7461L12.3563 28.4532C12.801 28.8978 13.181 29.2789 13.5201 29.5614C13.8698 29.8526 14.2485 30.1027 14.7148 30.2276L14.9736 29.2617ZM13.0635 27.7461L13.7709 27.0393L12.7924 26.0598L12.085 26.7666L11.3775 27.4734L12.356 28.4528L13.0635 27.7461ZM12.085 26.7666L12.7921 26.0595L12.2999 25.5673L11.5928 26.2744L10.8857 26.9815L11.3779 27.4737L12.085 26.7666ZM11.5928 26.2744L10.8822 25.5708L10.3948 26.063L11.1055 26.7666L11.8161 27.4702L12.3034 26.978L11.5928 26.2744ZM11.1055 26.7666L10.3983 26.0595C9.91692 26.541 9.62558 26.8295 9.38901 27.0102C9.28014 27.0933 9.21497 27.1277 9.18092 27.1419C9.15484 27.1528 9.14901 27.1514 9.14815 27.1514L9.14844 28.1514L9.14872 29.1514C9.74215 29.1512 10.2119 28.8983 10.6029 28.5997C10.9708 28.3187 11.3714 27.9149 11.8126 27.4737L11.1055 26.7666ZM9.14844 28.1514V27.1514C9.14749 27.1514 9.14157 27.1528 9.11542 27.1419C9.0813 27.1277 9.01606 27.0932 8.90715 27.0101C8.67052 26.8295 8.37899 26.541 7.89756 26.0595L7.19043 26.7666L6.4833 27.4737C6.92475 27.9152 7.32552 28.319 7.69382 28.6C8.08511 28.8987 8.55502 29.1514 9.14844 29.1514V28.1514ZM7.19043 26.7666L7.89754 26.0595L5.93953 24.1015L5.23242 24.8086L4.52532 25.5157L6.48332 27.4737L7.19043 26.7666ZM5.23242 24.8086L5.93955 24.1015C5.45834 23.6203 5.17004 23.3289 4.98968 23.0925C4.90668 22.9837 4.87233 22.9186 4.85812 22.8845C4.84723 22.8584 4.84863 22.8524 4.84863 22.8514L3.84863 22.8516L2.84863 22.8518C2.84876 23.4448 3.10111 23.9144 3.39958 24.3056C3.68046 24.6738 4.084 25.0744 4.52529 25.5157L5.23242 24.8086ZM3.84863 22.8516H4.84863C4.84863 22.8503 4.84727 22.8442 4.85819 22.818C4.87241 22.7839 4.90677 22.7186 4.98974 22.6098C5.16998 22.3734 5.45828 22.0819 5.9395 21.6007L5.23242 20.8936L4.52535 20.1864C4.08376 20.628 3.68016 21.0287 3.39922 21.3973C3.10068 21.7889 2.84863 22.2586 2.84863 22.8516H3.84863ZM5.23242 20.8936L5.93599 21.6042L6.42818 21.1169L5.72461 20.4062L5.02104 19.6956L4.52885 20.1829L5.23242 20.8936ZM5.72461 20.4062L6.43172 19.6991L4.96101 18.2284L4.25391 18.9355L3.5468 19.6427L5.0175 21.1134L5.72461 20.4062ZM4.25391 18.9355L4.96099 18.2284C4.49081 17.7583 4.1861 17.4521 3.97532 17.1992C3.77337 16.957 3.72316 16.8382 3.70417 16.7674L2.73828 17.0264L1.77239 17.2853C1.89746 17.7518 2.14782 18.1304 2.43904 18.4798C2.72142 18.8186 3.1025 19.1984 3.54682 19.6427L4.25391 18.9355ZM2.73828 17.0264L3.7042 16.7675C3.65532 16.5851 3.65529 16.3926 3.70422 16.2099L2.73828 15.9512L1.77234 15.6924C1.6326 16.214 1.63258 16.7636 1.77237 17.2852L2.73828 17.0264ZM2.73828 15.9512L3.70414 16.2102C3.72314 16.1394 3.77337 16.0207 3.97534 15.7784C4.18615 15.5255 4.49086 15.2193 4.96104 14.7491L4.25391 14.042L3.54677 13.3349C3.10248 13.7792 2.72143 14.159 2.43907 14.4978C2.14788 14.8471 1.89753 15.2257 1.77242 15.6921L2.73828 15.9512ZM4.25391 14.042L4.96101 14.7491C5.43142 14.2787 5.73778 13.9737 5.99089 13.7627C6.23347 13.5604 6.35225 13.5102 6.42287 13.4913L6.16406 12.5254L5.90525 11.5595C5.43844 11.6845 5.05956 11.9352 4.71014 12.2266C4.37125 12.5091 3.99125 12.8904 3.5468 13.3349L4.25391 14.042ZM6.16406 12.5254L6.42283 13.4913C6.60508 13.4425 6.79712 13.4425 6.97965 13.4914L7.23828 12.5254L7.49691 11.5594C6.97569 11.4199 6.42678 11.4198 5.9053 11.5595L6.16406 12.5254ZM7.23828 12.5254L6.97947 13.4913C7.0501 13.5102 7.16887 13.5604 7.41145 13.7627C7.66457 13.9737 7.97092 14.2787 8.44134 14.7491L9.14844 14.042L9.85554 13.3349C9.4111 12.8904 9.0311 12.5091 8.69221 12.2266C8.34278 11.9352 7.96391 11.6845 7.49709 11.5595L7.23828 12.5254ZM9.14844 14.042L8.44157 14.7493L9.91032 16.2171L10.6172 15.5098L11.3241 14.8024L9.85531 13.3347L9.14844 14.042ZM10.6172 15.5098L9.91008 16.2169L9.91203 16.2188L10.6191 15.5117L11.3262 14.8046L11.3243 14.8027L10.6172 15.5098ZM10.6191 15.5117L11.3267 16.2184L16.2173 11.3219L15.5098 10.6152L14.8022 9.90855L9.91161 14.805L10.6191 15.5117ZM15.5098 10.6152L16.2171 9.90836L14.7503 8.44059L14.043 9.14746L13.3356 9.85433L14.8024 11.3221L15.5098 10.6152ZM14.043 9.14746L14.7501 8.44036C14.2797 7.96995 13.9747 7.66359 13.7637 7.41047C13.5614 7.16789 13.5112 7.04911 13.4923 6.97849L12.5264 7.2373L11.5604 7.49612C11.6855 7.96293 11.9362 8.3418 12.2275 8.69122C12.5101 9.03011 12.8914 9.41012 13.3359 9.85456L14.043 9.14746ZM12.5264 7.2373L13.4923 6.97867C13.4435 6.79616 13.4435 6.60411 13.4923 6.42183L12.5264 6.16309L11.5604 5.90434C11.4207 6.42578 11.4208 6.97469 11.5604 7.49594L12.5264 7.2373ZM12.5264 6.16309L13.4923 6.42189C13.5112 6.35127 13.5614 6.23249 13.7637 5.98992C13.9747 5.7368 14.2797 5.43044 14.7501 4.96003L14.043 4.25293L13.3359 3.54583C12.8914 3.99027 12.5101 4.37027 12.2275 4.70916C11.9362 5.05859 11.6855 5.43746 11.5604 5.90428L12.5264 6.16309ZM14.043 4.25293L14.75 4.96007C15.2203 4.48989 15.5264 4.18518 15.7793 3.97437C16.0216 3.77239 16.1404 3.72216 16.2112 3.70316L15.9521 2.7373L15.6931 1.77145C15.2267 1.89656 14.8481 2.1469 14.4988 2.4381C14.16 2.72045 13.7802 3.1015 13.3359 3.54579L14.043 4.25293Z" fill="currentColor"/>
</svg>
