<svg width="32" height="32" viewBox="0 0 32 32" fill="none" xmlns="http://www.w3.org/2000/svg">
<path d="M28.25 1.99905C28.25 1.30905 27.69 0.749047 27 0.749047H7.2C7.172 0.748047 7.139 0.748047 7.107 0.748047C5.29 0.748047 3.81 2.19105 3.75 3.99405V3.99905V28.388C3.864 29.994 5.195 31.255 6.82 31.255C6.883 31.255 6.946 31.253 7.008 31.249H6.999H26.999C27.689 31.249 28.249 30.689 28.249 29.999C28.249 29.309 27.689 28.749 26.999 28.749H7.199C7.175 28.751 7.148 28.753 7.12 28.753C6.679 28.753 6.313 28.428 6.249 28.004L6.248 27.999V26.776C6.248 26.686 6.514 26.415 6.994 26.415L26.998 26.472H26.999C27.514 26.472 27.955 26.161 28.147 25.716L28.15 25.708L28.157 25.674C28.213 25.542 28.246 25.388 28.249 25.227V25.226V25.224V25.222L28.25 1.99905ZM25.75 23.968L11.25 23.927V3.24905H25.75V23.968ZM6.25 23.999V3.99905C6.314 3.57005 6.68 3.24505 7.121 3.24505C7.149 3.24505 7.176 3.24605 7.203 3.24905H7.2H8.75V23.92L7 23.915C6.733 23.917 6.475 23.948 6.226 24.004L6.25 23.999ZM14 8.24905H23C23.69 8.24905 24.25 7.68905 24.25 6.99905C24.25 6.30905 23.69 5.74905 23 5.74905H14C13.31 5.74905 12.75 6.30905 12.75 6.99905C12.75 7.68905 13.31 8.24905 14 8.24905ZM23 9.74905H14C13.31 9.74905 12.75 10.309 12.75 10.999C12.75 11.689 13.31 12.249 14 12.249H23C23.69 12.249 24.25 11.689 24.25 10.999C24.25 10.309 23.69 9.74905 23 9.74905Z" fill="currentColor"/>
</svg>
