<svg width="37" height="36" viewBox="0 0 37 36" fill="none" xmlns="http://www.w3.org/2000/svg">
<path d="M11.333 18V31.5C11.333 31.8978 11.175 32.2794 10.8937 32.5607C10.6124 32.842 10.2308 33 9.83301 33H5.33301C4.93518 33 4.55365 32.842 4.27235 32.5607C3.99104 32.2794 3.83301 31.8978 3.83301 31.5V18C3.83301 17.6022 3.99104 17.2206 4.27235 16.9393C4.55365 16.658 4.93518 16.5 5.33301 16.5H9.83301C10.2308 16.5 10.6124 16.658 10.8937 16.9393C11.175 17.2206 11.333 17.6022 11.333 18ZM21.083 9H16.583C16.1852 9 15.8037 9.15804 15.5223 9.43934C15.241 9.72064 15.083 10.1022 15.083 10.5V31.5C15.083 31.8978 15.241 32.2794 15.5223 32.5607C15.8037 32.842 16.1852 33 16.583 33H21.083C21.4808 33 21.8624 32.842 22.1437 32.5607C22.425 32.2794 22.583 31.8978 22.583 31.5V10.5C22.583 10.1022 22.425 9.72064 22.1437 9.43934C21.8624 9.15804 21.4808 9 21.083 9ZM32.333 3H27.833C27.4352 3 27.0537 3.15804 26.7723 3.43934C26.491 3.72064 26.333 4.10218 26.333 4.5V31.5C26.333 31.8978 26.491 32.2794 26.7723 32.5607C27.0537 32.842 27.4352 33 27.833 33H32.333C32.7308 33 33.1124 32.842 33.3937 32.5607C33.675 32.2794 33.833 31.8978 33.833 31.5V4.5C33.833 4.10218 33.675 3.72064 33.3937 3.43934C33.1124 3.15804 32.7308 3 32.333 3Z" fill="currentColor"/>
</svg>
