<svg width="51" height="50" viewBox="0 0 51 50" fill="none" xmlns="http://www.w3.org/2000/svg">
<g clip-path="url(#clip0_1506_6613)">
<path fill-rule="evenodd" clip-rule="evenodd" d="M28.208 6.25039H7.89551C7.03301 6.25039 6.33301 6.95039 6.33301 7.81289V42.1879C6.33301 43.0504 7.03301 43.7504 7.89551 43.7504H42.2705C43.133 43.7504 43.833 43.0504 43.833 42.1879V21.8754C43.833 21.0129 43.133 20.3129 42.2705 20.3129C41.408 20.3129 40.708 21.0129 40.708 21.8754V40.6254H9.45801V9.37539H28.208C29.0705 9.37539 29.7705 8.67539 29.7705 7.81289C29.7705 6.95039 29.0705 6.25039 28.208 6.25039ZM14.1455 35.9379H36.0205C36.883 35.9379 37.583 35.2379 37.583 34.3754C37.583 33.5129 36.883 32.8129 36.0205 32.8129H14.1455C13.283 32.8129 12.583 33.5129 12.583 34.3754C12.583 35.2379 13.283 35.9379 14.1455 35.9379ZM14.1455 29.6879H20.3955C21.258 29.6879 21.958 28.9879 21.958 28.1254C21.958 27.2629 21.258 26.5629 20.3955 26.5629H14.1455C13.283 26.5629 12.583 27.2629 12.583 28.1254C12.583 28.9879 13.283 29.6879 14.1455 29.6879ZM49.6252 8.91758C50.2361 8.3082 50.2361 7.31758 49.6252 6.7082L43.3752 0.458203C42.7658 -0.152734 41.7752 -0.152734 41.1658 0.458203L25.5408 16.0832C25.3221 16.3004 25.1736 16.5785 25.1127 16.8816L23.5502 24.6941C23.4486 25.2066 23.608 25.7363 23.9783 26.1051C24.3471 26.4754 24.8768 26.6348 25.3893 26.5332L33.2018 24.9707C33.5049 24.9098 33.783 24.7613 34.0002 24.5426L49.6252 8.91758ZM14.1455 23.4379H20.3955C21.258 23.4379 21.958 22.7379 21.958 21.8754C21.958 21.0129 21.258 20.3129 20.3955 20.3129H14.1455C13.283 20.3129 12.583 21.0129 12.583 21.8754C12.583 22.7379 13.283 23.4379 14.1455 23.4379ZM14.1455 17.1879H21.958C22.8205 17.1879 23.5205 16.4879 23.5205 15.6254C23.5205 14.7629 22.8205 14.0629 21.958 14.0629H14.1455C13.283 14.0629 12.583 14.7629 12.583 15.6254C12.583 16.4879 13.283 17.1879 14.1455 17.1879Z" fill="#2466F4"/>
</g>
<defs>
<clipPath id="clip0_1506_6613">
<rect width="50" height="50" fill="white" transform="translate(0.5)"/>
</clipPath>
</defs>
</svg>
