<svg width="60" height="60" viewBox="0 0 60 60" fill="none" xmlns="http://www.w3.org/2000/svg">
<path d="M30.0127 35.7791L7.56585 13.3333C6.94927 12.7152 6.12488 12.3752 5.24585 12.3752C4.36634 12.3752 3.54244 12.7152 2.92488 13.3333L0.959024 15.3001C0.340488 15.9172 0 16.7421 0 17.6211C0 18.5001 0.340488 19.324 0.959024 19.9416L27.6839 46.6669C28.3034 47.2869 29.1312 47.6264 30.0112 47.624C30.8951 47.6264 31.722 47.2874 32.342 46.6669L59.041 19.9664C59.6595 19.3489 60 18.525 60 17.6455C60 16.7664 59.6595 15.9425 59.041 15.3245L57.0751 13.3582C55.7956 12.0786 53.7127 12.0786 52.4337 13.3582L30.0127 35.7791Z" fill="currentColor"/>
</svg>
