<svg width="15" height="14" viewBox="0 0 15 14" fill="none" xmlns="http://www.w3.org/2000/svg">
<path d="M5.89062 13.8828C5.47396 13.8828 5.11979 13.7031 4.82812 13.3438L0.78125 8.35938C0.666667 8.22396 0.583333 8.09115 0.53125 7.96094C0.484375 7.83073 0.460938 7.69531 0.460938 7.55469C0.460938 7.24219 0.565104 6.98438 0.773438 6.78125C0.981771 6.57812 1.24479 6.47656 1.5625 6.47656C1.92188 6.47656 2.22396 6.63021 2.46875 6.9375L5.85938 11.2344L12.4766 0.75C12.612 0.541667 12.7526 0.395833 12.8984 0.3125C13.0443 0.223958 13.2266 0.179688 13.4453 0.179688C13.763 0.179688 14.0234 0.278646 14.2266 0.476562C14.4297 0.674479 14.5312 0.927083 14.5312 1.23438C14.5312 1.35938 14.5104 1.48438 14.4688 1.60938C14.4271 1.73438 14.362 1.86458 14.2734 2L6.96094 13.3125C6.71094 13.6927 6.35417 13.8828 5.89062 13.8828Z" fill="currentColor"/>
</svg>
