<svg width="37" height="36" viewBox="0 0 37 36" fill="none" xmlns="http://www.w3.org/2000/svg">
<g clip-path="url(#clip0_1354_8038)">
<path d="M36.166 10.7205C36.166 9.21094 34.941 7.98708 33.4315 7.98708C31.9209 7.98708 30.6959 9.21094 30.6959 10.7205C30.6959 11.4588 30.9893 12.1279 31.465 12.6189C29.605 16.4707 26.0498 17.8154 23.2945 16.5982C20.8401 15.5127 19.9349 12.4102 19.6283 10.0064C20.6291 9.48017 21.3114 8.43202 21.3114 7.22243C21.3114 5.4855 19.9041 4.07812 18.166 4.07812C16.4291 4.07812 15.0207 5.4855 15.0207 7.22243C15.0207 8.43202 15.7029 9.48009 16.7038 10.0064C16.3973 12.4102 15.492 15.5128 13.0376 16.5982C10.2822 17.8155 6.72709 16.4707 4.86711 12.6189C5.34284 12.1279 5.63619 11.4588 5.63619 10.7205C5.63619 9.21094 4.4112 7.98708 2.90166 7.98708C1.391 7.98708 0.166016 9.21094 0.166016 10.7205C0.166016 12.1113 1.2053 13.2572 2.54785 13.4308L5.69982 24.9675H30.6322L33.7842 13.4308C35.1278 13.2572 36.166 12.1113 36.166 10.7205Z" fill="currentColor"/>
<path d="M32.1593 29.8875C32.1593 31.0114 31.2486 31.9222 30.1236 31.9222H6.20853C5.08459 31.9222 4.17383 31.0114 4.17383 29.8875V29.7184C4.17383 28.5934 5.08459 27.6826 6.20853 27.6826H30.1236C31.2486 27.6826 32.1593 28.5934 32.1593 29.7184V29.8875Z" fill="currentColor"/>
</g>
<defs>
<clipPath id="clip0_1354_8038">
<rect width="36" height="36" fill="white" transform="translate(0.166016)"/>
</clipPath>
</defs>
</svg>
