<svg width="60" height="60" viewBox="0 0 60 60" fill="none" xmlns="http://www.w3.org/2000/svg">
<path fill-rule="evenodd" clip-rule="evenodd" d="M17.75 12.5H7.5C6.1193 12.5 5 13.6193 5 15C5 16.3807 6.1193 17.5 7.5 17.5H10.1514L12.2118 50.4678C12.4589 54.4205 15.7368 57.5 19.6973 57.5H40.3027C44.2632 57.5 47.541 54.4205 47.7882 50.4678L49.8488 17.5H52.5C53.8807 17.5 55 16.3807 55 15C55 13.6193 53.8807 12.5 52.5 12.5H47.5182C47.5045 12.4999 47.4907 12.4999 47.477 12.5H42.25C41.0918 6.7944 36.0475 2.5 30 2.5C23.9526 2.5 18.9082 6.7944 17.75 12.5ZM22.9268 12.5H37.0732C36.0438 9.58703 33.2655 7.5 30 7.5C26.7345 7.5 23.9563 9.58703 22.9268 12.5ZM44.8387 17.5H15.1611L17.2021 50.156C17.2845 51.4735 18.3771 52.5 19.6973 52.5H40.3027C41.623 52.5 42.7155 51.4735 42.798 50.156L44.8387 17.5ZM35.6975 25.0243C37.075 25.1208 38.1135 26.3152 38.017 27.6927L36.9707 42.656C36.8745 44.0335 35.6798 45.072 34.3025 44.9757C32.925 44.8792 31.8865 43.6847 31.983 42.3072L33.0293 27.344C33.1255 25.9665 34.3202 24.928 35.6975 25.0243ZM24.3025 25.0245C25.6798 24.9281 26.8745 25.9665 26.9707 27.344L28.0173 42.3075C28.1135 43.6848 27.075 44.8795 25.6978 44.9757C24.3203 45.072 23.1257 44.0335 23.0293 42.6562L21.983 27.6927C21.8867 26.3155 22.9251 25.1208 24.3025 25.0245Z" fill="currentColor"/>
</svg>
