<svg width="60" height="60" viewBox="0 0 60 60" fill="none" xmlns="http://www.w3.org/2000/svg">
<path d="M22.5 37.5L30 30M30 30L37.5 22.5M30 30L22.5 22.5M30 30L37.5 37.5M30.0002 52.5C25.9125 52.5 22.0794 51.4098 18.7756 49.5045C18.4493 49.3163 18.2859 49.222 18.1323 49.1797C17.9895 49.1402 17.8619 49.1268 17.714 49.137C17.5563 49.1478 17.3933 49.202 17.069 49.3102L11.2952 51.2347L11.2906 51.2367C10.0723 51.643 9.462 51.8465 9.0564 51.7018C8.703 51.5758 8.42448 51.2967 8.29845 50.9435C8.15393 50.538 8.3567 49.9297 8.76222 48.7132L8.76465 48.7057L10.6867 42.9395L10.6913 42.9275C10.7984 42.606 10.8526 42.4432 10.8634 42.2865C10.8735 42.1385 10.86 42.01 10.8205 41.8673C10.7786 41.7158 10.6862 41.5553 10.5028 41.2375L10.4955 41.2248C8.5901 37.921 7.5 34.0877 7.5 30C7.5 17.5736 17.5736 7.5 30 7.5C42.4265 7.5 52.5 17.5736 52.5 30C52.5 42.4265 42.4268 52.5 30.0002 52.5Z" stroke="currentColor" stroke-width="5" stroke-linecap="round" stroke-linejoin="round"/>
</svg>
