<svg width="66" height="42" viewBox="0 0 66 42" fill="none" xmlns="http://www.w3.org/2000/svg">
<path d="M33.0244 41.9541C29.8506 41.9541 26.8477 41.5635 24.0156 40.7822C21.1836 40.0173 18.555 39 16.1299 37.7305C13.7048 36.4447 11.5238 35.0368 9.58691 33.5068C7.66634 31.9606 6.01432 30.4144 4.63086 28.8682C3.26367 27.3219 2.21387 25.8896 1.48145 24.5713C0.765299 23.2367 0.407227 22.1706 0.407227 21.373C0.407227 20.5592 0.765299 19.4932 1.48145 18.1748C2.21387 16.8564 3.26367 15.4242 4.63086 13.8779C6.01432 12.3317 7.67448 10.7936 9.61133 9.26367C11.5482 7.71745 13.7292 6.30957 16.1543 5.04004C18.5794 3.75423 21.208 2.72884 24.04 1.96387C26.8721 1.18262 29.8669 0.791992 33.0244 0.791992C36.1982 0.791992 39.2012 1.18262 42.0332 1.96387C44.8652 2.72884 47.4938 3.75423 49.9189 5.04004C52.3441 6.30957 54.5169 7.71745 56.4375 9.26367C58.3743 10.7936 60.0264 12.3317 61.3936 13.8779C62.7607 15.4242 63.8024 16.8564 64.5186 18.1748C65.2347 19.4932 65.5928 20.5592 65.5928 21.373C65.5928 22.1706 65.2347 23.2367 64.5186 24.5713C63.8024 25.8896 62.7607 27.3219 61.3936 28.8682C60.0426 30.4144 58.3988 31.9606 56.4619 33.5068C54.5413 35.0368 52.3685 36.4447 49.9434 37.7305C47.5345 39 44.9059 40.0173 42.0576 40.7822C39.2093 41.5635 36.1982 41.9541 33.0244 41.9541ZM33.0244 34.9473C34.8799 34.9473 36.6296 34.5973 38.2734 33.8975C39.9173 33.1813 41.3577 32.2048 42.5947 30.9678C43.848 29.7145 44.8245 28.2741 45.5244 26.6465C46.2243 25.0026 46.5742 23.2448 46.5742 21.373C46.5742 19.5013 46.2243 17.7516 45.5244 16.124C44.8245 14.4801 43.848 13.0397 42.5947 11.8027C41.3577 10.5495 39.9173 9.57292 38.2734 8.87305C36.6296 8.1569 34.8799 7.79883 33.0244 7.79883C31.1364 7.79883 29.3704 8.1569 27.7266 8.87305C26.099 9.57292 24.6667 10.5495 23.4297 11.8027C22.1927 13.0397 21.2161 14.4801 20.5 16.124C19.8001 17.7516 19.4502 19.5013 19.4502 21.373C19.4502 23.2448 19.8001 25.0026 20.5 26.6465C21.2161 28.2741 22.1927 29.7145 23.4297 30.9678C24.6667 32.2048 26.099 33.1813 27.7266 33.8975C29.3704 34.5973 31.1364 34.9473 33.0244 34.9473ZM33.0244 26.0361C31.7223 26.0361 30.6156 25.5804 29.7041 24.6689C28.8089 23.7575 28.3613 22.6589 28.3613 21.373C28.3613 20.071 28.8089 18.9723 29.7041 18.0771C30.6156 17.1657 31.7223 16.71 33.0244 16.71C34.2939 16.71 35.3844 17.1657 36.2959 18.0771C37.2236 18.9723 37.6875 20.071 37.6875 21.373C37.6875 22.6589 37.2236 23.7575 36.2959 24.6689C35.3844 25.5804 34.2939 26.0361 33.0244 26.0361Z" fill="currentColor"/>
</svg>
