<svg width="66" height="43" viewBox="0 0 66 43" fill="none" xmlns="http://www.w3.org/2000/svg">
<path d="M33 42.1006C29.8099 42.1006 26.7907 41.71 23.9424 40.9287C21.0941 40.1475 18.4492 39.1139 16.0078 37.8281C13.5664 36.5423 11.3773 35.1263 9.44043 33.5801C7.50358 32.0339 5.84342 30.4876 4.45996 28.9414C3.09277 27.3789 2.04297 25.9385 1.31055 24.6201C0.578125 23.2855 0.211914 22.2113 0.211914 21.3975C0.211914 20.5837 0.578125 19.5176 1.31055 18.1992C2.04297 16.8646 3.10091 15.4242 4.48438 13.8779C5.86784 12.3154 7.52799 10.7611 9.46484 9.21484C11.418 7.66862 13.6152 6.2526 16.0566 4.9668C18.498 3.68099 21.1348 2.64746 23.9668 1.86621C26.8151 1.08496 29.8262 0.694336 33 0.694336C36.1738 0.694336 39.193 1.08496 42.0576 1.86621C44.9222 2.64746 47.5671 3.68099 49.9922 4.9668C52.4336 6.2526 54.6227 7.66862 56.5596 9.21484C58.4964 10.7611 60.1484 12.3154 61.5156 13.8779C62.8828 15.4242 63.9326 16.8646 64.665 18.1992C65.3975 19.5176 65.7637 20.5837 65.7637 21.3975C65.7637 22.2113 65.3975 23.2855 64.665 24.6201C63.9489 25.9385 62.9072 27.3789 61.54 28.9414C60.1729 30.4876 58.5208 32.0339 56.584 33.5801C54.6471 35.1263 52.458 36.5423 50.0166 37.8281C47.5915 39.1139 44.9466 40.1475 42.082 40.9287C39.2337 41.71 36.2064 42.1006 33 42.1006ZM33 39.0732C35.7507 39.0732 38.3874 38.7314 40.9102 38.0479C43.4329 37.348 45.7848 36.4284 47.9658 35.2891C50.1631 34.1497 52.1488 32.9128 53.9229 31.5781C55.6969 30.2272 57.2106 28.8926 58.4639 27.5742C59.7334 26.2396 60.71 25.027 61.3936 23.9365C62.0771 22.846 62.4189 21.9997 62.4189 21.3975C62.4189 20.8604 62.0771 20.0628 61.3936 19.0049C60.71 17.9469 59.7334 16.7507 58.4639 15.416C57.2106 14.0651 55.6969 12.7142 53.9229 11.3633C52.1488 9.99609 50.1631 8.7347 47.9658 7.5791C45.7848 6.4235 43.4329 5.49577 40.9102 4.7959C38.3874 4.07975 35.7507 3.72168 33 3.72168C30.2168 3.72168 27.5638 4.07975 25.041 4.7959C22.5182 5.49577 20.1582 6.4235 17.9609 7.5791C15.7799 8.7347 13.8024 9.99609 12.0283 11.3633C10.2705 12.7142 8.75684 14.0651 7.4873 15.416C6.21777 16.7507 5.24121 17.9469 4.55762 19.0049C3.8903 20.0628 3.55664 20.8604 3.55664 21.3975C3.55664 21.9997 3.8903 22.846 4.55762 23.9365C5.24121 25.027 6.21777 26.2396 7.4873 27.5742C8.75684 28.8926 10.2705 30.2272 12.0283 31.5781C13.8024 32.9128 15.7799 34.1497 17.9609 35.2891C20.1582 36.4284 22.5182 37.348 25.041 38.0479C27.5638 38.7314 30.2168 39.0732 33 39.0732ZM33 35.0449C31.112 35.0449 29.3379 34.695 27.6777 33.9951C26.0176 33.279 24.5609 32.2943 23.3076 31.041C22.0544 29.7878 21.0697 28.3311 20.3535 26.6709C19.6374 25.0107 19.2793 23.2367 19.2793 21.3486C19.2793 19.4606 19.6374 17.6947 20.3535 16.0508C21.0697 14.3906 22.0544 12.9339 23.3076 11.6807C24.5609 10.4274 26.0176 9.45085 27.6777 8.75098C29.3379 8.03483 31.112 7.67676 33 7.67676C34.888 7.67676 36.654 8.03483 38.2979 8.75098C39.958 9.45085 41.4147 10.4274 42.668 11.6807C43.9212 12.9339 44.8978 14.3906 45.5977 16.0508C46.3138 17.6947 46.6719 19.4606 46.6719 21.3486C46.6719 23.2367 46.3138 25.0107 45.5977 26.6709C44.8978 28.3311 43.9212 29.7878 42.668 31.041C41.4147 32.2943 39.958 33.279 38.2979 33.9951C36.654 34.695 34.888 35.0449 33 35.0449ZM33 25.7432C34.2044 25.7432 35.2298 25.32 36.0762 24.4736C36.9388 23.611 37.3701 22.5775 37.3701 21.373C37.3701 20.1686 36.9388 19.1432 36.0762 18.2969C35.2298 17.4342 34.2044 17.0029 33 17.0029C31.7956 17.0029 30.762 17.4342 29.8994 18.2969C29.0531 19.1432 28.6299 20.1686 28.6299 21.373C28.6299 22.5775 29.0531 23.611 29.8994 24.4736C30.762 25.32 31.7956 25.7432 33 25.7432Z" fill="currentColor"/>
</svg>
