<svg width="60" height="60" viewBox="0 0 60 60" fill="none" xmlns="http://www.w3.org/2000/svg">
<path d="M24.2209 30.0127L46.6667 7.56585C47.2848 6.94927 47.6248 6.12488 47.6248 5.24585C47.6248 4.36634 47.2848 3.54244 46.6667 2.92488L44.6999 0.959024C44.0828 0.340488 43.2579 0 42.3789 0C41.4999 0 40.676 0.340488 40.0584 0.959024L13.3331 27.6839C12.7131 28.3034 12.3736 29.1312 12.376 30.0112C12.3736 30.8951 12.7126 31.722 13.3331 32.342L40.0336 59.041C40.6511 59.6595 41.475 60 42.3545 60C43.2336 60 44.0575 59.6595 44.6755 59.041L46.6418 57.0751C47.9214 55.7956 47.9214 53.7127 46.6418 52.4337L24.2209 30.0127Z" fill="currentColor"/>
</svg>
