<svg width="24" height="25" viewBox="0 0 24 25" fill="none" xmlns="http://www.w3.org/2000/svg">
<path d="M2 12C2 11.4477 2.40702 11 2.90909 11H21.0909C21.593 11 22 11.4477 22 12C22 12.5523 21.593 13 21.0909 13H2.90909C2.40702 13 2 12.5523 2 12Z" fill="currentColor"/>
<path d="M2 5C2 4.44772 2.40702 4 2.90909 4H21.0909C21.593 4 22 4.44772 22 5C22 5.55228 21.593 6 21.0909 6H2.90909C2.40702 6 2 5.55228 2 5Z" fill="currentColor"/>
<path d="M2 19C2 18.4477 2.40702 18 2.90909 18H21.0909C21.593 18 22 18.4477 22 19C22 19.5523 21.593 20 21.0909 20H2.90909C2.40702 20 2 19.5523 2 19Z" fill="currentColor"/>
</svg>
