<svg width="60" height="60" viewBox="0 0 60 60" fill="none" xmlns="http://www.w3.org/2000/svg">
<path d="M35.7801 29.9873L13.3343 52.4341C12.7162 53.0507 12.3762 53.8751 12.3762 54.7541C12.3762 55.6337 12.7162 56.4576 13.3343 57.0751L15.3011 59.041C15.9182 59.6595 16.743 60 17.6221 60C18.5011 60 19.325 59.6595 19.9425 59.041L46.6679 32.3161C47.2879 31.6966 47.6274 30.8688 47.625 29.9888C47.6274 29.1049 47.2884 28.278 46.6679 27.658L19.9674 0.959026C19.3499 0.340488 18.526 0 17.6465 0C16.7674 0 15.9435 0.340488 15.3255 0.959026L13.3591 2.92488C12.0796 4.20439 12.0796 6.28732 13.3591 7.56634L35.7801 29.9873Z" fill="currentColor"/>
</svg>
