<svg width="37" height="36" viewBox="0 0 37 36" fill="none" xmlns="http://www.w3.org/2000/svg">
<path d="M6.01182 32H30.9007M18.4562 32V10.2222M18.4562 10.2222C20.1745 10.2222 21.5673 8.82933 21.5673 7.11111M18.4562 10.2222C16.7381 10.2222 15.3452 8.82933 15.3452 7.11111M21.5673 7.11111C21.5673 5.39289 20.1745 4 18.4562 4C16.7381 4 15.3452 5.39289 15.3452 7.11111M21.5673 7.11111H30.9007M15.3452 7.11111H6.01182M9.12293 25.7778C11.4758 25.7778 13.4219 24.4686 13.7431 22.2798C13.7634 22.141 13.7736 22.0717 13.7657 21.9178C13.7602 21.8116 13.7242 21.6176 13.6912 21.5163C13.6435 21.37 13.5856 21.2671 13.47 21.0613L9.12293 13.3333L4.77588 21.0613C4.66863 21.252 4.61501 21.3474 4.5654 21.5131C4.53488 21.615 4.49955 21.8595 4.5 21.9657C4.50072 22.1387 4.51117 22.1843 4.53211 22.2756C4.92872 24.0044 6.83326 25.7778 9.12293 25.7778ZM27.7896 25.7778C30.1425 25.7778 32.0886 24.4686 32.4097 22.2798C32.4301 22.141 32.4404 22.0717 32.4323 21.9178C32.4268 21.8116 32.3909 21.6176 32.3579 21.5163C32.3102 21.37 32.2523 21.2671 32.1365 21.0613L27.7896 13.3333L23.4425 21.0613C23.3354 21.252 23.2817 21.3474 23.2321 21.5131C23.2016 21.615 23.1663 21.8595 23.1666 21.9657C23.1674 22.1387 23.1778 22.1843 23.1988 22.2756C23.5955 24.0044 25.4999 25.7778 27.7896 25.7778Z" stroke="currentColor" stroke-width="3" stroke-linecap="round" stroke-linejoin="round"/>
</svg>
