<svg width="36" height="36" viewBox="0 0 36 36" fill="none" xmlns="http://www.w3.org/2000/svg">
<path fill-rule="evenodd" clip-rule="evenodd" d="M33.9301 5.68363C34.7581 3.43138 32.5689 1.24213 30.3166 2.07238L4.22564 11.6844C3.74579 11.861 3.32317 12.1652 3.00325 12.564C2.68333 12.9629 2.4782 13.4415 2.40994 13.9483C2.34168 14.455 2.41286 14.9708 2.61583 15.4401C2.8188 15.9094 3.14588 16.3146 3.56189 16.6119L12.7194 23.1526C12.769 23.1888 12.8123 23.2329 12.8476 23.2831L19.3884 32.4384C19.6857 32.8544 20.0908 33.1815 20.5601 33.3844C21.0295 33.5874 21.5453 33.6586 22.052 33.5903C22.5588 33.5221 23.0373 33.3169 23.4362 32.997C23.8351 32.6771 24.1392 32.2545 24.3159 31.7746L33.9301 5.68363ZM6.39014 14.4834L30.3414 5.65888L21.5169 29.6101L16.1394 22.0861L23.0514 15.1764C23.1976 15.0301 23.3137 14.8565 23.3928 14.6654C23.472 14.4743 23.5127 14.2695 23.5127 14.0626C23.5127 13.8558 23.472 13.651 23.3928 13.4599C23.3137 13.2688 23.1976 13.0951 23.0514 12.9489C22.9051 12.8026 22.7315 12.6866 22.5404 12.6074C22.3493 12.5283 22.1445 12.4875 21.9376 12.4875C21.7308 12.4875 21.526 12.5283 21.3349 12.6074C21.1438 12.6866 20.9701 12.8026 20.8239 12.9489L13.9141 19.8586L6.39014 14.4834Z" fill="currentColor"/>
</svg>
