<svg width="60" height="60" viewBox="0 0 60 60" fill="none" xmlns="http://www.w3.org/2000/svg">
<path d="M30.0127 24.2199L7.56585 46.6657C6.94927 47.2838 6.12488 47.6238 5.24585 47.6238C4.36634 47.6238 3.54244 47.2838 2.92488 46.6657L0.959024 44.6989C0.340488 44.0818 0 43.257 0 42.3779C0 41.4989 0.340488 40.675 0.959024 40.0575L27.6839 13.3321C28.3034 12.7121 29.1312 12.3726 30.0112 12.375C30.8951 12.3726 31.722 12.7116 32.342 13.3321L59.041 40.0326C59.6595 40.6501 60 41.474 60 42.3535C60 43.2326 59.6595 44.0565 59.041 44.6745L57.0751 46.6409C55.7956 47.9204 53.7127 47.9204 52.4337 46.6409L30.0127 24.2199Z" fill="currentColor"/>
</svg>
